<svg width="18" height="18" viewBox="0 0 24 24" fill="none" xmlns="http://www.w3.org/2000/svg">
  <path d="M23.49 12.27c0-.79-.07-1.55-.2-2.27H12v4.3h6.44a5.5 5.5 0 0 1-2.39 3.61v3h3.87c2.26-2.08 3.57-5.14 3.57-8.64Z" fill="#4285F4"/>
  <path d="M12 24c3.24 0 5.96-1.07 7.95-2.91l-3.87-3c-1.07.72-2.44 1.15-4.08 1.15-3.14 0-5.8-2.12-6.75-4.97H1.25v3.09A12 12 0 0 0 12 24Z" fill="#34A853"/>
  <path d="M5.25 14.27A7.2 7.2 0 0 1 4.87 12c0-.79.14-1.55.38-2.27V6.64H1.25A12 12 0 0 0 0 12c0 1.94.46 3.77 1.25 5.36l4-3.09Z" fill="#FBBC05"/>
  <path d="M12 4.77c1.76 0 3.35.61 4.59 1.8l3.44-3.44C17.95 1.14 15.24 0 12 0A12 12 0 0 0 1.25 6.64l4 3.09c.95-2.85 3.61-4.96 6.75-4.96Z" fill="#EA4335"/>
</svg>
